<svg width="2255" xmlns="http://www.w3.org/2000/svg" xmlns:xlink="http://www.w3.org/1999/xlink" viewBox="0 0 2255 804" xmlns:ev="http://www.w3.org/2001/xml-events" height="804"><defs/><g id="page1" transform="translate(5.5,5.5)"><rect fill="#ffffff" y="0" width="2245" height="794" x="0"/><g id="shape1" transform="translate(76.00,76.00)"><path fill="#ffffff" d="M.0,.0L440.0,.0L440.0,606.0L.0,606.0L.0,.0zM.0,46.0L440.0,46.0L.0,46.0zM.0,222.0L440.0,222.0L.0,222.0z" fill-rule="nonzero"/><path d="M.0,.0L440.0,.0L440.0,606.0L.0,606.0L.0,.0zM.0,46.0L440.0,46.0L.0,46.0zM.0,222.0L440.0,222.0L.0,222.0z" fill="none" stroke-width="5" stroke="#323232"/><text style="fill:#191919;font-family:Fira Code;font-size:13.00pt" xml:space="preserve"><tspan y="28.4" x="188.8">Guitar</tspan></text><text style="fill:#191919;font-family:Fira Code;font-size:13.00pt" xml:space="preserve"><tspan y="74.4" x="3.2">+ serialNumber: String </tspan><tspan y="102.4" x="3.2">+ price: int</tspan><tspan y="130.4" x="3.2">+ buider: String</tspan><tspan y="158.4" x="3.2">+ Model: String</tspan><tspan y="186.4" x="3.2">+ BackWood: String</tspan><tspan y="214.4" x="3.2">+ TopWood: String</tspan></text><text style="fill:#191919;font-family:Fira Code;font-size:13.00pt" xml:space="preserve"><tspan y="250.4" x="3.2">+ setSerialNumber(String SerialNumber): </tspan><tspan y="278.4" x="3.2">void</tspan><tspan y="306.4" x="3.2">+ setPrice(int Price): void</tspan><tspan y="334.4" x="3.2">+ setBuilder(String Builder): void</tspan><tspan y="362.4" x="3.2">+ setModel(String Model): void</tspan><tspan y="390.4" x="3.2">+ setBackWood(String BackWood): void</tspan><tspan y="418.4" x="3.2">+ setTopWood(String TopWood): void</tspan><tspan y="446.4" x="3.2">+ getSerialNumber(): serialNumber</tspan><tspan y="474.4" x="3.2">+ getPrice(): price</tspan><tspan y="502.4" x="3.2">+ getBuilder(): builder</tspan><tspan y="530.4" x="3.2">+ getModel(): model</tspan><tspan y="558.4" x="3.2">+ getBackWood(): backWood</tspan><tspan y="586.4" x="3.2">+ getTopWood(): topWood</tspan><tspan y="614.4" x="3.2">+ createSound(): void</tspan></text></g><g id="shape2" transform="translate(756.00,297.00)"><path fill="#ffffff" d="M.0,.0L440.0,.0L440.0,164.0L.0,164.0L.0,.0zM.0,46.0L440.0,46.0L.0,46.0zM.0,92.0L440.0,92.0L.0,92.0z" fill-rule="nonzero"/><path d="M.0,.0L440.0,.0L440.0,164.0L.0,164.0L.0,.0zM.0,46.0L440.0,46.0L.0,46.0zM.0,92.0L440.0,92.0L.0,92.0z" fill="none" stroke-width="5" stroke="#323232"/><text style="fill:#191919;font-family:Fira Code;font-size:13.00pt" xml:space="preserve"><tspan y="28.4" x="178.4">Invetory</tspan></text><text style="fill:#191919;font-family:Fira Code;font-size:13.00pt" xml:space="preserve"><tspan y="74.4" x="3.2">guitars: ArrayList&lt;String></tspan></text><text style="fill:#191919;font-family:Fira Code;font-size:13.00pt" xml:space="preserve"><tspan y="120.4" x="3.2">addNewGuitar(): void</tspan><tspan y="148.4" x="3.2">searchGuitarBySerial(): guitar</tspan></text></g><g id="shape3" transform="translate(516.00,490.00)"><path d="M.0,.0L120.0,.0L120.0,-124.0L235.3,-124.0" fill="none" stroke-dasharray="11,5" stroke-width="5" stroke="#191919"/><path fill="none" d="M227.0,-130.5L240.0,-124.0L227.0,-117.5" stroke-linecap="round" stroke-width="4.66667" stroke-linejoin="round" stroke="#191919"/></g></g></svg>