<svg xmlns:ev="http://www.w3.org/2001/xml-events" width="2255" xmlns:xlink="http://www.w3.org/1999/xlink" height="1597" xmlns="http://www.w3.org/2000/svg" viewBox="0 0 2255 1597"><defs/><g transform="translate(5.5,5.5)" id="page1"><rect width="2245" height="1587" fill="#ffffff" y="0" x="0"/><g transform="translate(70.00,693.70)" id="shape1"><path fill-rule="nonzero" fill="#ffffff" d="M.0,.0L440.0,.0L440.0,736.0L.0,736.0L.0,.0zM.0,46.0L440.0,46.0L.0,46.0zM.0,222.0L440.0,222.0L.0,222.0z"/><path stroke-width="5" fill="none" stroke="#323232" d="M.0,.0L440.0,.0L440.0,736.0L.0,736.0L.0,.0zM.0,46.0L440.0,46.0L.0,46.0zM.0,222.0L440.0,222.0L.0,222.0z"/><text xml:space="preserve" style="fill:#191919;font-family:Fira Code;font-size:13.00pt"><tspan y="28.4" x="188.8">Guitar</tspan></text><text xml:space="preserve" style="fill:#191919;font-family:Fira Code;font-size:13.00pt"><tspan y="74.4" x="3.2">- serialNumber: String </tspan><tspan y="102.4" x="3.2">- price: int</tspan><tspan y="130.4" x="3.2">- buider: String</tspan><tspan y="158.4" x="3.2">- Model: String</tspan><tspan y="186.4" x="3.2">- BackWood: String</tspan><tspan y="214.4" x="3.2">- TopWood: String</tspan></text><text xml:space="preserve" style="fill:#191919;font-family:Fira Code;font-size:13.00pt"><tspan y="250.4" x="3.2">+ guitar()</tspan><tspan y="278.4" x="3.2">+ guitar(String SerialNumber, int Price, </tspan><tspan y="306.4" x="3.2">String Builder, String Model, String </tspan><tspan y="334.4" x="3.2">Model, String BackWood, String TopWood)</tspan><tspan y="362.4" x="3.2">+ setSerialNumber(String SerialNumber): </tspan><tspan y="390.4" x="3.2">void</tspan><tspan y="418.4" x="3.2">+ setPrice(int Price): void</tspan><tspan y="446.4" x="3.2">+ setBuilder(String Builder): void</tspan><tspan y="474.4" x="3.2">+ setModel(String Model): void</tspan><tspan y="502.4" x="3.2">+ setBackWood(String BackWood): void</tspan><tspan y="530.4" x="3.2">+ setTopWood(String TopWood): void</tspan><tspan y="558.4" x="3.2">+ getSerialNumber(): String</tspan><tspan y="586.4" x="3.2">+ getPrice(): int</tspan><tspan y="614.4" x="3.2">+ getBuilder(): String</tspan><tspan y="642.4" x="3.2">+ getModel(): String</tspan><tspan y="670.4" x="3.2">+ getBackWood(): String</tspan><tspan y="698.4" x="3.2">+ getTopWood(): String</tspan><tspan y="726.4" x="3.2">+ createSound(): void</tspan></text></g><g transform="translate(756.00,1090.70)" id="shape2"><path fill-rule="nonzero" fill="#ffffff" d="M.0,.0L440.0,.0L440.0,164.0L.0,164.0L.0,.0zM.0,46.0L440.0,46.0L.0,46.0zM.0,92.0L440.0,92.0L.0,92.0z"/><path stroke-width="5" fill="none" stroke="#323232" d="M.0,.0L440.0,.0L440.0,164.0L.0,164.0L.0,.0zM.0,46.0L440.0,46.0L.0,46.0zM.0,92.0L440.0,92.0L.0,92.0z"/><text xml:space="preserve" style="fill:#191919;font-family:Fira Code;font-size:13.00pt"><tspan y="28.4" x="178.4">Invetory</tspan></text><text xml:space="preserve" style="fill:#191919;font-family:Fira Code;font-size:13.00pt"><tspan y="74.4" x="3.2">guitars: ArrayList&lt;String></tspan></text><text xml:space="preserve" style="fill:#191919;font-family:Fira Code;font-size:13.00pt"><tspan y="120.4" x="3.2">addNewGuitar(guitar): void</tspan><tspan y="148.4" x="3.2">searchGuitarBySerial(serialNumber): </tspan><tspan y="176.4" x="3.2">guitar</tspan></text></g><g transform="translate(510.00,1176.76)" id="shape3"><path stroke-dasharray="11,5" stroke-width="5" fill="none" stroke="#191919" d="M.0,.0L123.0,.0L123.0,-17.1L241.3,-17.1"/><path stroke-linecap="round" stroke-width="4.66667" fill="none" stroke="#191919" d="M233.0,-23.5L246.0,-17.1L233.0,-10.6" stroke-linejoin="round"/></g></g></svg>